<svg xmlns="http://www.w3.org/2000/svg" viewBox="0 0 800 1100" fill="none">
  <defs>
    <style>
      .fp { fill: #f0d0d0; opacity: 0.35; }
      .fp2 { fill: #e8c4c4; opacity: 0.28; }
      .fl { fill: #bccdb4; opacity: 0.3; }
      .fs { stroke: #d4b8b0; stroke-width: 0.8; fill: none; opacity: 0.35; }
    </style>
  </defs>

  <!-- Top-left cluster -->
  <ellipse cx="60" cy="55" rx="22" ry="28" transform="rotate(-20 60 55)" class="fp"/>
  <ellipse cx="82" cy="48" rx="20" ry="26" transform="rotate(15 82 48)" class="fp"/>
  <ellipse cx="72" cy="32" rx="18" ry="24" class="fp2"/>
  <ellipse cx="45" cy="42" rx="16" ry="20" transform="rotate(-35 45 42)" class="fp2"/>
  <circle cx="68" cy="48" r="10" class="fp2"/>
  <circle cx="68" cy="48" r="5" fill="#d4a0a0" opacity="0.2"/>
  <ellipse cx="35" cy="70" rx="18" ry="8" transform="rotate(-50 35 70)" class="fl"/>
  <ellipse cx="90" cy="30" rx="16" ry="7" transform="rotate(20 90 30)" class="fl"/>
  <ellipse cx="100" cy="62" rx="15" ry="6" transform="rotate(30 100 62)" class="fl"/>

  <!-- Top-right cluster -->
  <ellipse cx="720" cy="40" rx="20" ry="26" transform="rotate(20 720 40)" class="fp"/>
  <ellipse cx="745" cy="55" rx="18" ry="24" transform="rotate(-10 745 55)" class="fp"/>
  <ellipse cx="730" cy="70" rx="16" ry="22" class="fp2"/>
  <ellipse cx="705" cy="62" rx="15" ry="18" transform="rotate(-20 705 62)" class="fp2"/>
  <circle cx="725" cy="55" r="9" class="fp2"/>
  <ellipse cx="765" cy="35" rx="14" ry="6" transform="rotate(15 765 35)" class="fl"/>
  <ellipse cx="695" cy="45" rx="15" ry="6" transform="rotate(-25 695 45)" class="fl"/>

  <!-- Left side scattered -->
  <ellipse cx="25" cy="220" rx="12" ry="15" transform="rotate(-15 25 220)" class="fp"/>
  <ellipse cx="38" cy="215" rx="11" ry="14" transform="rotate(10 38 215)" class="fp2"/>
  <circle cx="30" cy="220" r="6" class="fp2"/>
  <ellipse cx="15" cy="240" rx="12" ry="5" transform="rotate(-45 15 240)" class="fl"/>

  <ellipse cx="40" cy="450" rx="15" ry="19" transform="rotate(-10 40 450)" class="fp"/>
  <ellipse cx="55" cy="445" rx="13" ry="17" transform="rotate(15 55 445)" class="fp2"/>
  <circle cx="46" cy="450" r="7" class="fp2"/>
  <ellipse cx="25" cy="468" rx="14" ry="6" transform="rotate(-50 25 468)" class="fl"/>
  <ellipse cx="62" cy="430" rx="13" ry="5" transform="rotate(25 62 430)" class="fl"/>

  <ellipse cx="20" cy="700" rx="18" ry="22" transform="rotate(-20 20 700)" class="fp"/>
  <ellipse cx="38" cy="692" rx="16" ry="20" transform="rotate(12 38 692)" class="fp2"/>
  <circle cx="28" cy="700" r="8" class="fp2"/>
  <ellipse cx="12" cy="720" rx="15" ry="6" transform="rotate(-55 12 720)" class="fl"/>

  <!-- Right side scattered -->
  <ellipse cx="770" cy="200" rx="14" ry="18" transform="rotate(15 770 200)" class="fp"/>
  <ellipse cx="756" cy="210" rx="12" ry="16" transform="rotate(-10 756 210)" class="fp2"/>
  <circle cx="764" cy="205" r="7" class="fp2"/>
  <ellipse cx="785" cy="220" rx="13" ry="5" transform="rotate(40 785 220)" class="fl"/>

  <ellipse cx="780" cy="480" rx="16" ry="20" transform="rotate(20 780 480)" class="fp"/>
  <ellipse cx="762" cy="488" rx="14" ry="18" transform="rotate(-15 762 488)" class="fp2"/>
  <circle cx="772" cy="482" r="8" class="fp2"/>
  <ellipse cx="796" cy="500" rx="14" ry="5" transform="rotate(50 796 500)" class="fl"/>

  <!-- Bottom clusters -->
  <ellipse cx="120" cy="1040" rx="20" ry="25" transform="rotate(-25 120 1040)" class="fp"/>
  <ellipse cx="142" cy="1032" rx="18" ry="23" transform="rotate(18 142 1032)" class="fp"/>
  <ellipse cx="132" cy="1018" rx="16" ry="21" class="fp2"/>
  <ellipse cx="108" cy="1025" rx="14" ry="18" transform="rotate(-30 108 1025)" class="fp2"/>
  <circle cx="128" cy="1032" r="9" class="fp2"/>
  <ellipse cx="100" cy="1058" rx="18" ry="7" transform="rotate(-45 100 1058)" class="fl"/>
  <ellipse cx="155" cy="1020" rx="16" ry="6" transform="rotate(20 155 1020)" class="fl"/>

  <ellipse cx="650" cy="1050" rx="18" ry="23" transform="rotate(22 650 1050)" class="fp"/>
  <ellipse cx="672" cy="1042" rx="16" ry="21" transform="rotate(-18 672 1042)" class="fp"/>
  <ellipse cx="660" cy="1028" rx="15" ry="20" class="fp2"/>
  <circle cx="658" cy="1042" r="8" class="fp2"/>
  <ellipse cx="685" cy="1062" rx="16" ry="6" transform="rotate(40 685 1062)" class="fl"/>
  <ellipse cx="635" cy="1038" rx="15" ry="6" transform="rotate(-30 635 1038)" class="fl"/>

  <!-- Center scattered small elements -->
  <circle cx="380" cy="80" r="6" class="fp"/>
  <circle cx="380" cy="80" r="3" class="fp2"/>
  <path d="M365 80 Q380 72 395 80" class="fs"/>

  <circle cx="200" cy="350" r="7" class="fp"/>
  <circle cx="200" cy="350" r="3.5" class="fp2"/>

  <circle cx="600" cy="300" r="5" class="fp"/>
  <circle cx="600" cy="300" r="2.5" class="fp2"/>

  <circle cx="150" cy="600" r="8" class="fp"/>
  <circle cx="150" cy="600" r="4" class="fp2"/>

  <circle cx="650" cy="650" r="6" class="fp"/>
  <circle cx="650" cy="650" r="3" class="fp2"/>

  <circle cx="400" cy="900" r="7" class="fp"/>
  <circle cx="400" cy="900" r="3.5" class="fp2"/>

  <!-- Plus/sparkle marks (from the reference image) -->
  <path d="M170 130 V118 M164 124 H176" stroke="#d4b0b0" stroke-width="0.8" opacity="0.3"/>
  <path d="M620 150 V138 M614 144 H626" stroke="#d4b0b0" stroke-width="0.8" opacity="0.3"/>
  <path d="M80 380 V372 M76 376 H84" stroke="#d4b0b0" stroke-width="0.7" opacity="0.28"/>
  <path d="M720 400 V392 M716 396 H724" stroke="#d4b0b0" stroke-width="0.7" opacity="0.28"/>
  <path d="M350 500 V490 M344 495 H356" stroke="#d4b0b0" stroke-width="0.9" opacity="0.25"/>
  <path d="M200 800 V790 M194 795 H206" stroke="#d4b0b0" stroke-width="0.7" opacity="0.28"/>
  <path d="M590 780 V770 M584 775 H596" stroke="#d4b0b0" stroke-width="0.8" opacity="0.3"/>
</svg>
